<?xml version="1.0" encoding="UTF-8"?>
<svg xmlns="http://www.w3.org/2000/svg" viewBox="0 0 16 16">
  <!-- Raven silhouette — matches app icon design -->
  <!-- Body -->
  <path d="M3.2 11.5C2.2 10.2 2.5 8.2 3.8 7L6 5.8L8.2 5.5L10.2 6.2L11.2 7.5C11.5 9 10.8 10.5 9.2 11.5L6.5 12.2L3.2 11.5Z" fill="context-fill"/>
  <!-- Head -->
  <ellipse cx="10.8" cy="4.8" rx="2.6" ry="2.5" fill="context-fill"/>
  <!-- Eye -->
  <circle cx="11.8" cy="4.5" r="0.85" fill="context-stroke"/>
  <circle cx="12" cy="4.35" r="0.3" fill="context-fill"/>
  <!-- Beak -->
  <path d="M13.2 5L15.5 5.3L13.3 6Z" fill="context-fill"/>
  <!-- Wing -->
  <path d="M4.2 9.5C3.5 8.2 4 7 5.5 6.5L7.5 6.8L8.5 8L7.8 9.8L5.5 10.5L4.2 9.5Z" fill="context-fill" opacity="0.6"/>
  <!-- Tail -->
  <path d="M2.5 11.2L1.2 12.5C1.8 12 2.2 11.8 2.5 11.2Z" fill="context-fill" opacity="0.8"/>
  <path d="M3 11.5L1.8 13C2.4 12.4 2.8 12 3 11.5Z" fill="context-fill" opacity="0.7"/>
  <!-- Feet -->
  <path d="M6.8 12L6.5 13.5L5.8 14M6.5 13.5L7 14" fill="none" stroke="context-fill" stroke-width="0.6" stroke-linecap="round" stroke-linejoin="round"/>
  <path d="M8.8 11.5L8.5 13L7.8 13.6M8.5 13L9 13.6" fill="none" stroke="context-fill" stroke-width="0.6" stroke-linecap="round" stroke-linejoin="round"/>
</svg>
