<?xml version="1.0" encoding="UTF-8"?>
<svg xmlns="http://www.w3.org/2000/svg" viewBox="0 0 16 16">
  <!-- Simplified crow silhouette for toolbar -->
  <!-- Tail -->
  <path d="M2.2 10.5Q1.5 11.2 1.5 12.5Q2 12 2.5 11.8Q2.2 12.8 2.3 13.5Q2.8 12.8 3.2 12.3L4 10.8Z" fill="context-fill" opacity="0.85"/>
  <!-- Body -->
  <ellipse cx="7" cy="9" rx="4.2" ry="3" fill="context-fill"/>
  <!-- Wing detail -->
  <path d="M5.2 8Q4.3 7 4.1 8.5Q4 9.5 4.8 10.5Q5.6 11.2 7 11Q6.1 10.5 5.6 9.7Q5.3 9 5.2 8Z" fill="context-fill" opacity="0.7"/>
  <!-- Head -->
  <circle cx="10.2" cy="5.8" r="2.5" fill="context-fill"/>
  <!-- Eye -->
  <circle cx="11" cy="5.5" r="0.9" fill="context-stroke"/>
  <circle cx="11.2" cy="5.3" r="0.35" fill="context-fill"/>
  <!-- Beak -->
  <path d="M12.5 5.8L14.2 6L12.7 6.7Z" fill="context-fill" opacity="0.85"/>
  <!-- Crest -->
  <path d="M9 4.2Q8.8 3 9.5 2.3" fill="none" stroke="context-fill" stroke-width="0.6" stroke-linecap="round"/>
  <path d="M9.7 3.9Q9.8 2.6 10.6 2" fill="none" stroke="context-fill" stroke-width="0.6" stroke-linecap="round"/>
  <path d="M10.3 3.8Q10.8 2.7 11.5 2.3" fill="none" stroke="context-fill" stroke-width="0.55" stroke-linecap="round"/>
  <!-- Feet -->
  <path d="M6 11.8L5.7 13L5.1 13.6" fill="none" stroke="context-fill" stroke-width="0.5" stroke-linecap="round" stroke-linejoin="round"/>
  <path d="M5.7 13L6.1 13.6" fill="none" stroke="context-fill" stroke-width="0.5" stroke-linecap="round"/>
  <path d="M8 11.8L7.7 13L7.1 13.6" fill="none" stroke="context-fill" stroke-width="0.5" stroke-linecap="round" stroke-linejoin="round"/>
  <path d="M7.7 13L8.1 13.6" fill="none" stroke="context-fill" stroke-width="0.5" stroke-linecap="round"/>
</svg>
